Coordinates
version=1
nRows=60
nColumns=12
inDegrees=yes

Units are S.I. units (second, meters, Newtons, ...)
Angles are in degrees

endheader
time	SC_y	SC_z	SC_x	AC_y	AC_z	AC_x	GH_y	GH_z	GH_yy	EL_x	PS_y
       0.0              -16.28          37.94          62.15          44.12           2.76          2.972          23.73          27.31         -97.79          112.4          43.67
   0.02416              -16.28          37.94          62.14          44.12          2.759          2.974          23.72          27.31         -97.79          112.4          43.68
   0.04832              -16.28          37.94          62.13          44.12          2.758          2.976          23.71          27.32         -97.79          112.4          43.69
   0.07249              -16.28          37.94          62.12          44.12          2.757          2.978           23.7          27.33         -97.79          112.4           43.7
   0.09665              -16.28          37.94          62.11          44.12          2.756           2.98          23.69          27.34         -97.79          112.4          43.71
    0.1208              -16.28          37.94           62.1          44.11          2.755          2.982          23.68          27.35         -97.79          112.4          43.72
     0.145              -16.28          37.94          62.09          44.11          2.754          2.985          23.66          27.36          -97.8          112.3          43.74
    0.1691              -16.28          37.94          62.08          44.11          2.753          2.987          23.65          27.37          -97.8          112.3          43.75
    0.1933              -16.28          37.94          62.07          44.11          2.752           2.99          23.63          27.38          -97.8          112.3          43.76
    0.2175              -16.28          37.94          62.06           44.1          2.751          2.993          23.62          27.39          -97.8          112.3          43.78
    0.2416              -16.29          37.94          62.04           44.1          2.749          2.996           23.6           27.4          -97.8          112.2          43.79
    0.2658              -16.29          37.94          62.03           44.1          2.748            3.0          23.58          27.41         -97.81          112.2          43.81
    0.2899              -16.29          37.94          62.01          44.09          2.746          3.004          23.56          27.43         -97.81          112.2          43.83
    0.3141              -16.29          37.94          61.99          44.09          2.745          3.008          23.54          27.44         -97.81          112.2          43.85
    0.3383              -16.29          37.94          61.97          44.08          2.743          3.012          23.51          27.46         -97.81          112.1          43.87
    0.3624              -16.29          37.94          61.95          44.08          2.741          3.017          23.49          27.48         -97.82          112.1          43.89
    0.3866              -16.29          37.94          61.93          44.07          2.738          3.022          23.46           27.5         -97.82          112.1          43.92
    0.4108              -16.29          37.94           61.9          44.07          2.736          3.028          23.43          27.52         -97.82          112.0          43.95
    0.4349              -16.29          37.94          61.87          44.06          2.733          3.034          23.39          27.54         -97.83          112.0          43.98
    0.4591              -16.29          37.94          61.84          44.06          2.731          3.041          23.36          27.57         -97.83          111.9          44.01
    0.4832              -16.29          37.94          61.81          44.05          2.727          3.048          23.32           27.6         -97.84          111.9          44.04
    0.5074              -16.29          37.94          61.77          44.04          2.724          3.057          23.27          27.63         -97.84          111.8          44.08
    0.5316               -16.3          37.94          61.73          44.03           2.72          3.066          23.22          27.66         -97.85          111.7          44.13
    0.5557               -16.3          37.94          61.69          44.02          2.716          3.076          23.17           27.7         -97.86          111.7          44.18
    0.5799               -16.3          37.94          61.64          44.01          2.711          3.087          23.11          27.75         -97.86          111.6          44.23
    0.6041               -16.3          37.94          61.59           44.0          2.706          3.099          23.04          27.79         -97.87          111.5          44.29
    0.6282               -16.3          37.94          61.52          43.99            2.7          3.113          22.96          27.85         -97.88          111.4          44.36
    0.6524              -16.31          37.94          61.45          43.97          2.693          3.129          22.88          27.91         -97.89          111.3          44.43
    0.6765              -16.31          37.94          61.38          43.96          2.686          3.147          22.78          27.97          -97.9          111.1          44.52
    0.7007              -16.31          37.94          61.29          43.94          2.677          3.167          22.67          28.05         -97.92          111.0          44.62
    0.7249              -16.32          37.94          61.18          43.91          2.668           3.19          22.54          28.14         -97.93          110.8          44.73
     0.749              -16.32          37.94          61.07          43.89          2.657          3.216           22.4          28.24         -97.95          110.6          44.86
    0.7732              -16.32          37.94          60.93          43.86          2.644          3.247          22.23          28.36         -97.97          110.4           45.0
    0.7973              -16.33          37.94          60.78          43.83          2.629          3.282          22.04          28.49         -97.99          110.1          45.18
    0.8215              -16.34          37.94          60.59          43.79          2.611          3.324          21.81          28.65         -98.02          109.8          45.38
    0.8457              -16.34          37.94          60.38          43.74          2.591          3.373          21.55          28.84         -98.05          109.4          45.61
    0.8698              -16.35          37.94          60.12          43.68          2.566          3.431          21.23          29.06         -98.09          109.0          45.89
     0.894              -16.36          37.94          59.81          43.62          2.537            3.5          20.85          29.32         -98.14          108.5          46.23
    0.9182              -16.38          37.94          59.44          43.54          2.501          3.585          20.39          29.65         -98.19          107.8          46.64
    0.9423              -16.39          37.95          58.98          43.44          2.458          3.688          19.83          30.04         -98.26          107.1          47.14
    0.9665              -16.41          37.95          58.42          43.32          2.405          3.815          19.14          30.52         -98.35          106.1          47.75
    0.9906              -16.44          37.95          57.72          43.17          2.338          3.973          18.28          31.13         -98.45          104.9          48.52
     1.015              -16.47          37.95          56.84          42.98          2.254          4.172          17.19          31.89         -98.58          103.4          49.48
     1.039              -16.51          37.95          55.72          42.73          2.147          4.426          15.81          32.86         -98.75          101.5          50.71
     1.063              -16.56          37.96          54.28          42.42           2.01          4.751          14.04          34.09         -98.97          99.09          52.28
     1.087              -16.63          37.96          52.44          42.02          1.834          5.167          11.77          35.68         -99.24          95.97          54.29
     1.111              -16.71          37.97          50.09          41.52           1.61          5.699          8.873          37.71          -99.6          91.97          56.87
     1.136              -16.81          37.98          47.13          40.88          1.328          6.368          5.227          40.27         -100.0          86.96           60.1
      1.16              -16.94          37.99          43.53           40.1         0.9845          7.184         0.7853          43.38         -100.6          80.84          64.05
     1.184              -17.09           38.0          39.35          39.19         0.5861          8.129         -4.364          46.98         -101.2          73.75          68.62
     1.208              -17.25          38.02          34.82          38.21         0.1548          9.152         -9.939          50.89         -101.9          66.08          73.57
     1.232              -17.41          38.03           30.3          37.24        -0.2765          10.18         -15.51          54.79         -102.6           58.4          78.52
     1.256              -17.56          38.04          26.12          36.33        -0.6748          11.12         -20.66           58.4         -103.2          51.31          83.09
     1.281              -17.69          38.05          22.51          35.55         -1.019          11.94          -25.1          61.51         -103.7           45.2          87.03
     1.305              -17.79          38.06          19.55          34.91         -1.301           12.6         -28.75          64.06         -104.2          40.18          90.27
     1.329              -17.88          38.07           17.2           34.4         -1.525          13.14         -31.65           66.1         -104.5          36.19          92.84
     1.353              -17.94          38.07          15.36          34.01           -1.7          13.55         -33.92          67.68         -104.8          33.07          94.85
     1.377              -17.99          38.08          13.92           33.7         -1.837          13.88         -35.69          68.92         -105.0          30.63          96.42
     1.401              -18.03          38.08           12.8          33.45         -1.944          14.13         -37.07          69.89         -105.2          28.73          97.65
     1.426              -18.06          38.08          11.92          33.26         -2.028          14.33         -38.16          70.65         -105.3          27.23          98.62
